<?xml version="1.0" encoding="UTF-8"?>
<!DOCTYPE svg PUBLIC "-//W3C//DTD SVG 1.1//EN" "http://www.w3.org/Graphics/SVG/1.1/DTD/svg11.dtd">
<!-- Creator: CorelDRAW 2017 -->
<svg xmlns="http://www.w3.org/2000/svg" xml:space="preserve" width="24px" height="24px" version="1.1" style="shape-rendering:geometricPrecision; text-rendering:geometricPrecision; image-rendering:optimizeQuality; fill-rule:evenodd; clip-rule:evenodd"
viewBox="0 0 24 23.999"
 xmlns:xlink="http://www.w3.org/1999/xlink">
 <defs>
  <style type="text/css">
   <![CDATA[
    .str0 {stroke:black;stroke-miterlimit:22.9256}
    .fil0 {fill:none}
    .fil1 {fill:#FFB13B}
   ]]>
  </style>
 </defs>
 <g id="Capa_x0020_1">
  <metadata id="CorelCorpID_0Corel-Layer"/>
  <rect class="fil0" width="24" height="24"/>
  <path class="fil1 str0" d="M5.268 10.731c-0.336,-0.336 -0.792,-0.525 -1.268,-0.525 -0.99,0 -1.793,0.803 -1.793,1.793 0,0.99 0.803,1.794 1.793,1.794 0.476,0 0.932,-0.19 1.268,-0.526l3.67 0 -2.595 2.596c-0.475,0 -0.932,0.189 -1.268,0.525 -0.701,0.7 -0.701,1.836 0,2.536 0.7,0.7 1.836,0.7 2.536,0 0.336,-0.336 0.525,-0.793 0.525,-1.268l2.596 -2.595 0 3.67c-0.336,0.336 -0.525,0.793 -0.525,1.268 0,0.991 0.803,1.794 1.793,1.794 0.99,-0.001 1.793,-0.804 1.793,-1.794 0,-0.475 -0.189,-0.932 -0.525,-1.268l0 -3.67 2.595 2.595c0,0.475 0.189,0.932 0.525,1.268 0.7,0.7 1.836,0.7 2.536,0 0.701,-0.7 0.701,-1.836 0,-2.536 -0.336,-0.336 -0.792,-0.525 -1.268,-0.525l-2.595 -2.596 3.67 0c0.337,0.336 0.793,0.526 1.269,0.526 0.99,0 1.793,-0.804 1.793,-1.794 0,-0.99 -0.803,-1.793 -1.793,-1.793 -0.476,0 -0.932,0.189 -1.268,0.525l-3.671 0 2.595 -2.595c0.475,0 0.932,-0.189 1.268,-0.525 0.7,-0.7 0.7,-1.836 0,-2.536 -0.7,-0.7 -1.836,-0.7 -2.536,0 -0.336,0.336 -0.525,0.793 -0.525,1.268l-2.595 2.595 0 -3.67c0.335,-0.336 0.525,-0.793 0.525,-1.268 0,-0.99 -0.804,-1.794 -1.793,-1.794 -0.991,0.001 -1.794,0.804 -1.794,1.794 0,0.476 0.19,0.932 0.526,1.268l0 3.67 -2.596 -2.596c0.001,-0.474 -0.188,-0.931 -0.524,-1.267 -0.701,-0.7 -1.837,-0.7 -2.537,0 -0.7,0.7 -0.7,1.836 0,2.536 0.337,0.336 0.793,0.525 1.269,0.525l2.595 2.595 -3.671 0z"/>
 </g>
</svg>
