<?xml version="1.0" encoding="UTF-8"?>
<!DOCTYPE svg PUBLIC "-//W3C//DTD SVG 1.1//EN" "http://www.w3.org/Graphics/SVG/1.1/DTD/svg11.dtd">
<!-- Creator: CorelDRAW 2017 -->
<svg xmlns="http://www.w3.org/2000/svg" xml:space="preserve" width="24px" height="24px" version="1.1" style="shape-rendering:geometricPrecision; text-rendering:geometricPrecision; image-rendering:optimizeQuality; fill-rule:evenodd; clip-rule:evenodd"
viewBox="0 0 24 23.999"
 xmlns:xlink="http://www.w3.org/1999/xlink">
 <defs>
  <style type="text/css">
   <![CDATA[
    .str0 {stroke:gray;stroke-width:0.756;stroke-miterlimit:22.9256}
    .fil0 {fill:none}
    .fil3 {fill:#FFB13B}
    .fil2 {fill:yellow}
    .fil1 {fill:url(#id0)}
   ]]>
  </style>
  <linearGradient id="id0" gradientUnits="userSpaceOnUse" x1="11.001" y1="17" x2="11.001" y2="5">
   <stop offset="0" style="stop-opacity:1; stop-color:#E6E6E6"/>
   <stop offset="1" style="stop-opacity:1; stop-color:#FEFEFE"/>
  </linearGradient>
 </defs>
 <g id="Capa_x0020_1">
  <metadata id="CorelCorpID_0Corel-Layer"/>
  <rect class="fil0" width="24" height="24"/>
  <rect class="fil1 str0" x="3.5" y="5.5" width="17" height="13"/>
 </g>
 <g id="Capa_x0020_1_0">
  <metadata id="CorelCorpID_1Corel-Layer"/>
  <g>
   <polygon class="fil2" points="12.437,7.798 9.812,10.423 12.216,10.423 11.03,12.357 14.188,9.493 12.18,9.493 13.888,7.785 "/>
   <path id="1" class="fil3" d="M9.105 9.716l2.625 -2.624 0.285 -0.286 0.414 -0.004 1.451 -0.013 2.44 -0.022 -1.725 1.725 -0.001 0.001 2.178 0 -1.916 1.738 -3.158 2.864 -5.156 4.677 3.637 -5.934 0.255 -0.416 -0.622 0 -2.413 0 1.706 -1.706zm3.332 -1.918l-2.625 2.625 2.404 0 -1.186 1.934 3.158 -2.864 -2.008 0 1.708 -1.708 -1.451 0.013z"/>
  </g>
 </g>
</svg>
