<?xml version="1.0" encoding="UTF-8"?>
<!DOCTYPE svg PUBLIC "-//W3C//DTD SVG 1.1//EN" "http://www.w3.org/Graphics/SVG/1.1/DTD/svg11.dtd">
<!-- Creator: CorelDRAW 2017 -->
<svg xmlns="http://www.w3.org/2000/svg" xml:space="preserve" width="24px" height="24px" version="1.1" style="shape-rendering:geometricPrecision; text-rendering:geometricPrecision; image-rendering:optimizeQuality; fill-rule:evenodd; clip-rule:evenodd"
viewBox="0 0 24 23.999"
 xmlns:xlink="http://www.w3.org/1999/xlink">
 <defs>
  <style type="text/css">
   <![CDATA[
    .str0 {stroke:black;stroke-width:0.756;stroke-miterlimit:22.9256}
    .fil0 {fill:none}
    .fil1 {fill:#6699FF}
    .fil2 {fill:white;fill-rule:nonzero}
   ]]>
  </style>
 </defs>
 <g id="Capa_x0020_1">
  <metadata id="CorelCorpID_0Corel-Layer"/>
  <rect class="fil0" width="24" height="24"/>
  <rect class="fil1 str0" x="3.5" y="5.5" width="17" height="13"/>
  <path class="fil2" d="M11.77 11.955c0,0.612 -0.073,1.14 -0.217,1.584 -0.144,0.444 -0.338,0.813 -0.583,1.103 -0.244,0.289 -0.53,0.504 -0.859,0.645 -0.327,0.14 -0.674,0.211 -1.038,0.211 -0.437,0 -0.82,-0.078 -1.143,-0.236 -0.326,-0.158 -0.594,-0.388 -0.807,-0.686 -0.214,-0.299 -0.374,-0.662 -0.477,-1.092 -0.104,-0.428 -0.156,-0.912 -0.156,-1.45 0,-0.605 0.071,-1.129 0.213,-1.574 0.142,-0.444 0.336,-0.812 0.582,-1.102 0.243,-0.29 0.529,-0.505 0.856,-0.645 0.326,-0.141 0.671,-0.212 1.035,-0.212 0.438,0 0.82,0.08 1.143,0.24 0.326,0.16 0.596,0.388 0.811,0.684 0.215,0.297 0.375,0.66 0.481,1.087 0.106,0.428 0.159,0.908 0.159,1.443zm-0.928 0.066c0,-0.4 -0.03,-0.766 -0.093,-1.097 -0.062,-0.332 -0.163,-0.617 -0.3,-0.857 -0.139,-0.24 -0.316,-0.425 -0.535,-0.558 -0.219,-0.132 -0.482,-0.197 -0.789,-0.197 -0.297,0 -0.555,0.071 -0.768,0.211 -0.216,0.141 -0.392,0.331 -0.53,0.573 -0.137,0.241 -0.24,0.524 -0.308,0.85 -0.067,0.323 -0.101,0.668 -0.101,1.032 0,0.404 0.032,0.77 0.096,1.103 0.064,0.332 0.163,0.616 0.3,0.854 0.137,0.237 0.313,0.422 0.528,0.555 0.217,0.132 0.479,0.198 0.783,0.198 0.298,0 0.554,-0.071 0.771,-0.212 0.215,-0.14 0.395,-0.33 0.534,-0.572 0.14,-0.242 0.243,-0.523 0.311,-0.846 0.067,-0.324 0.101,-0.669 0.101,-1.037zm6.668 3.381l-1.166 0 -2.549 -3.337 0 3.337 -0.928 0 0 -6.805 0.928 0 0 3.166 2.496 -3.166 1.098 0 -2.688 3.236 2.809 3.569z"/>
 </g>
</svg>
